<svg width="451" height="66" viewBox="0 0 451 66" fill="none" xmlns="http://www.w3.org/2000/svg">
<path d="M35.2505 9.14417C35.3721 9.80388 35.6431 10.2232 36.0635 10.4022C36.5439 10.5811 36.8145 10.8205 36.8752 11.1203C36.9968 11.78 37.1481 12.3197 37.3291 12.7392C37.5701 13.1587 37.991 13.5477 38.5918 13.9063C39.2527 14.2647 39.6438 14.7438 39.7653 15.3435C39.8865 15.8832 40.1878 16.4225 40.6691 16.9613C40.7297 17.2012 40.7305 17.5312 40.6715 17.9513C40.6724 18.3713 40.6134 18.7915 40.4944 19.2117C40.4353 19.5719 40.3462 19.9321 40.227 20.2924C40.1079 20.6527 40.0184 20.8629 39.9585 20.923C39.8989 21.1032 39.8394 21.2833 39.7798 21.4635C39.7202 21.6436 39.6307 21.8538 39.5113 22.0941C39.392 22.3944 39.2129 22.7848 38.9741 23.2654C38.7951 23.6858 38.5562 24.1664 38.2575 24.7071C37.1825 26.8096 36.2857 28.1618 35.5671 28.7635C35.5074 28.8836 35.2075 28.9443 34.6675 28.9456C34.1875 28.9468 33.6476 28.978 33.0478 29.0395C32.4479 29.1009 31.9082 29.2222 31.4286 29.4033C30.949 29.5844 30.7098 29.915 30.711 30.395C30.2913 30.516 30.1118 30.7264 30.1725 31.0263C30.293 31.266 30.4737 31.5356 30.7144 31.835C31.0151 32.1343 31.2858 32.4337 31.5265 32.7331C31.7671 32.9725 31.8275 33.1224 31.7076 33.1827C32.7282 33.4202 33.8984 33.5075 35.2182 33.4443C36.5381 33.3812 37.618 33.3486 38.458 33.3466C38.8196 34.0058 39.2408 34.5148 39.7216 34.8736C40.2023 35.1725 40.9227 35.3208 41.8827 35.3185L47.2983 41.8757L47.0492 50.6963L44.1778 54.3031C42.0778 54.3081 40.1901 55.3026 38.5149 57.2866L36.0919 60.2623C35.4326 60.5639 34.5631 60.776 33.4834 60.8985C32.4036 60.9611 30.6336 60.9953 28.1736 61.0011C26.5537 61.005 24.9636 60.9788 23.4034 60.9225C21.9033 60.866 20.5232 60.8393 19.2632 60.8423C18.0632 60.8451 17.0733 60.8775 16.2935 60.9393C15.5735 60.9411 15.2137 61.0319 15.2141 61.2119C14.2537 61.0342 13.5335 60.9759 13.0537 61.037C12.5738 61.0982 12.1538 61.0692 11.7935 60.95L2.70756 62.6816L0.45308 60.797C0.511797 60.2568 0.600301 59.6266 0.718591 58.9063C1.01631 57.9456 1.19439 57.1352 1.25282 56.475C1.37111 55.7548 1.42968 55.1546 1.42854 54.6746C1.42826 54.5546 1.39769 54.3147 1.33683 53.9548C1.27584 53.535 1.15505 53.2053 0.974484 52.9657L1.32145 47.4749C2.28187 47.6526 3.12144 47.4706 3.84016 46.9289L4.46588 45.1274C3.98389 44.2885 3.65239 43.6593 3.47139 43.2397C3.29025 42.7602 2.77969 42.5214 1.93969 42.5234L1.38644 36.9447C1.6863 36.884 1.89594 36.7335 2.01537 36.4932C2.1348 36.2529 2.19423 36.0128 2.19366 35.7728L2.28195 35.0525C2.40124 34.7523 2.52081 34.572 2.64067 34.5117C2.93867 33.671 3.17596 32.5304 3.35254 31.09C3.52898 29.5896 3.70477 27.8191 3.87993 25.7787C4.11494 23.6782 4.26067 21.8778 4.3171 20.3777C4.43354 18.8774 4.49133 17.9472 4.49048 17.5872C4.49034 17.5272 4.3982 16.6275 4.21407 14.8879C4.03008 13.2083 3.21702 11.9203 1.77488 11.0237L1.76334 6.16369C2.0622 5.68298 2.99163 5.44077 4.55162 5.43706C4.97148 5.37607 5.33141 5.34521 5.63141 5.3445C5.99141 5.34364 6.29141 5.34293 6.53141 5.34236L7.4314 5.34022C7.7914 5.33937 8.5114 5.33766 9.5914 5.33509C10.7313 5.27239 11.721 5.15004 12.5605 4.96804C12.7402 4.84762 13.0999 4.69676 13.6395 4.51548C14.179 4.3342 14.5088 4.24341 14.6288 4.24313L24.9794 4.48855C25.0404 4.90841 25.2214 5.29798 25.5222 5.65726C25.8829 5.95641 26.2736 6.25548 26.6943 6.55448C27.1149 6.79348 27.5054 7.00256 27.8658 7.1817C28.2863 7.3607 28.5866 7.50999 28.7669 7.62957C29.3669 7.62814 29.877 7.65693 30.2971 7.71593C30.7171 7.71493 31.1072 7.74401 31.4673 7.80315C32.0075 7.86187 32.8475 7.85987 33.9873 7.79717L35.2505 9.14417ZM14.7491 54.913L26.7215 55.8746C27.501 55.6927 28.1606 55.5111 28.7002 55.3299C29.2998 55.1484 29.8692 54.9071 30.4085 54.6058C30.9476 54.2445 31.5165 53.7632 32.115 53.1617C32.7736 52.5602 33.5517 51.7483 34.4493 50.7262L36.1462 45.2322L33.8804 38.5775L21.36 34.1972L16.4998 34.1188C15.6605 34.4208 15.0619 35.0222 14.7041 35.923C14.346 36.7639 14.1681 37.6343 14.1703 38.5343C14.2345 40.3342 14.3564 41.1439 14.536 40.9635C14.5966 41.2033 14.4779 41.7736 14.1801 42.6743C13.9421 43.5149 13.7949 44.7152 13.7386 46.2754C13.6805 47.0555 13.6521 47.7456 13.6536 48.3456C13.655 48.9456 13.6562 49.4556 13.6572 49.8756L13.6606 51.3156L13.5751 53.2058L14.7491 54.913ZM15.6385 12.5208L15.7364 15.8505L14.4813 17.9235L15.659 21.1607L15.6725 26.8307L17.0259 28.2675L19.2759 28.2622C19.9357 28.2006 20.5358 28.2292 21.0761 28.3479C21.6762 28.4065 22.0363 28.4356 22.1563 28.4353C22.8163 28.4338 23.266 28.3127 23.5054 28.0721C23.8047 27.7714 23.9844 27.621 24.0444 27.6208C24.2244 27.6204 24.5547 27.7696 25.0354 28.0685L26.8326 26.8942C26.7114 26.3545 26.7101 25.8145 26.8288 25.2742C26.8877 24.7941 26.9765 24.3139 27.0954 23.8336C27.2141 23.2933 27.4529 22.7827 27.8117 22.3019C28.4096 21.4005 28.798 20.7395 28.977 20.3191C29.2159 19.8385 29.4246 19.298 29.6032 18.6976C29.4211 17.798 29.1493 17.0787 28.7881 16.5395C28.4866 15.9403 28.1555 15.461 27.7946 15.1019C27.4336 14.6828 27.1028 14.3235 26.8021 14.0242C26.5614 13.7248 26.4106 13.3952 26.3497 13.0353C25.8685 12.4965 25.507 11.8973 25.2655 11.2379C25.0239 10.5785 24.8131 10.249 24.6331 10.2494L21.1214 9.53772L17.4333 10.3565L15.6385 12.5208ZM71.3432 49.0186L71.7184 55.4077L71.3663 58.7386L71.3703 60.4485L69.6661 62.8826L66.6978 63.6097L58.9613 65.068C58.3016 65.1896 57.7614 65.1009 57.3406 64.8019C56.9798 64.4427 56.7977 63.5732 56.7944 62.1932L56.794 62.0132L58.2178 55.1698L58.4732 49.0491L58.4651 45.6291L59.5267 37.8866C59.466 37.5867 59.4047 37.0169 59.3427 36.177C59.2807 35.3372 59.1882 34.2874 59.0652 33.0277C59.0036 32.3678 58.9722 31.7679 58.9709 31.2279C58.9696 30.6879 58.9385 30.208 58.8775 29.7881L58.873 27.8981C58.8732 27.9581 59.0827 27.7776 59.5017 27.3566C59.9206 26.8756 60.2792 26.3048 60.5777 25.6441C60.876 24.9234 60.9941 24.1431 60.9321 23.3032C60.8701 22.4634 60.3583 21.6846 59.3966 20.9669L60.8896 5.39327C61.309 5.15228 61.3373 4.43221 60.9744 3.23306L62.7702 1.4288L63.9397 1.24602C64.1799 1.30545 64.57 1.36452 65.1102 1.42324C65.6502 1.42196 66.2202 1.4506 66.8204 1.50918C67.4204 1.50775 67.9904 1.5364 68.5306 1.59511C69.1306 1.59369 69.5806 1.62262 69.8808 1.68191C70.4211 1.80063 71.1113 1.88899 71.9514 1.94699C72.7914 1.945 73.3916 2.03357 73.7521 2.21272L75.5544 3.19844L75.5585 4.90843C75.7393 5.26801 75.7105 5.77808 75.4721 6.43865C75.2935 7.03907 75.2352 7.75921 75.2972 8.59907C75.2982 9.01907 75.2694 9.49914 75.2106 10.0393C75.1519 10.5794 75.0931 11.0896 75.0343 11.5697C75.0354 12.0497 75.0064 12.4698 74.9473 12.8299C74.8881 13.1901 74.8586 13.4001 74.8588 13.4601C74.8591 13.5801 74.8294 13.7302 74.7698 13.9103L74.6816 14.6305C74.6821 14.8705 74.6226 15.0807 74.503 15.261C74.4435 15.4411 74.3836 15.5013 74.3235 15.4414C74.2635 15.4415 74.1139 15.6219 73.8748 15.9825C73.6956 16.3429 73.4867 16.7934 73.248 17.334C73.0691 17.8144 72.9203 18.3247 72.8016 18.865C72.6829 19.4053 72.6539 19.8254 72.7146 20.1252C72.7753 20.4251 72.8364 20.9049 72.898 21.5648C72.9594 22.1647 73.0214 23.0045 73.084 24.0844C73.0853 24.6244 73.0864 25.1044 73.0874 25.5244C73.1484 25.9442 73.1793 26.3041 73.18 26.6041C73.1808 26.9641 73.2115 27.2341 73.2719 27.4139L72.6545 32.7254L72.8407 35.335C72.0047 37.017 71.6175 38.1879 71.6791 38.8477C71.8006 39.5075 72.1619 40.0466 72.7629 40.4652L71.3432 49.0186ZM130.183 24.3088L128.503 36.9128L128.785 42.0421L128.348 47.4432L127.01 52.6664L121.808 60.4188C119.533 62.1642 117.075 63.34 114.437 63.9463C111.798 64.5526 108.949 64.7093 105.888 64.4166L101.653 62.5366L99.2234 62.5424C98.2634 62.5447 96.5812 61.6187 94.1768 59.7644C93.1549 58.9868 92.2833 58.2989 91.5619 57.7006C91.3816 57.581 91.2013 57.4614 91.021 57.3419C90.9007 57.2222 90.7804 57.1024 90.6601 56.9827C90.659 56.5027 90.5976 55.9029 90.4759 55.1832C90.3542 54.4634 90.172 53.5639 89.9295 52.4844C89.7469 51.4049 89.5649 50.5653 89.3835 49.9657C89.2619 49.306 89.1708 48.8262 89.1101 48.5264C89.1096 48.3464 89.1391 48.1363 89.1986 47.8962C89.2578 47.596 89.2572 47.326 89.1966 47.0862C89.1959 46.7862 89.1054 46.5464 88.9249 46.3668C88.7445 46.1872 88.4143 46.098 87.9343 46.0992L88.1923 41.0585C88.4308 40.398 88.5497 39.9477 88.5491 39.7077C88.5485 39.4677 88.518 39.2578 88.4576 39.0779C88.3972 38.898 88.3666 38.6581 88.3659 38.3581C88.3652 38.0581 88.514 37.5478 88.8123 36.8271L89.2544 33.496C89.7948 33.6747 90.2144 33.5237 90.5133 33.043C90.8722 32.5622 91.0808 31.9917 91.1392 31.3315C91.2575 30.6112 91.226 29.9813 91.0447 29.4417C90.8633 28.8422 90.5026 28.543 89.9626 28.5443C89.7215 28.0649 89.5703 27.5552 89.509 27.0154C89.4475 26.4155 89.4768 26.1154 89.5968 26.1152C89.596 25.7552 89.565 25.3352 89.5038 24.8554C89.4427 24.3755 89.4106 23.4756 89.4074 22.1556L92.0123 19.9894C92.7324 20.0477 93.6326 20.1056 94.7127 20.163C95.7927 20.1604 96.9027 20.1578 98.0427 20.1551C99.2427 20.1522 100.383 20.1795 101.463 20.237C102.543 20.2344 103.413 20.2923 104.073 20.4108L104.796 21.5791C104.439 22.7799 104.261 23.6503 104.262 24.1903C104.203 24.5505 104.204 24.8505 104.264 25.0903L104.094 29.2307C103.915 29.5912 103.736 30.1316 103.558 30.852C103.44 31.5123 103.321 32.2626 103.203 33.1029C103.145 33.883 103.087 34.6932 103.029 35.5333C102.971 36.3734 102.943 37.0935 102.944 37.6935C102.647 38.7142 102.349 39.7949 102.052 40.9356C101.755 42.0163 101.727 43.0364 101.969 43.9958C102.09 44.2955 102.151 44.6854 102.152 45.1654C102.213 45.5853 102.425 46.3948 102.788 47.5939C102.669 47.9542 102.58 48.4044 102.521 48.9445C102.462 49.4847 102.434 50.0547 102.435 50.6547C102.496 51.1946 102.618 51.7643 102.799 52.3639C103.04 52.9033 103.372 53.3525 103.792 53.7115L107.219 56.4034L112.62 56.8406C113.222 57.6191 113.763 58.0079 114.243 58.0067C114.722 57.9456 115.111 57.3147 115.408 56.114L118.554 54.2165L121.058 47.5505L121.138 43.4103L121.128 39.0003C122.326 38.1575 122.983 37.2559 123.101 36.2956C123.219 35.3353 122.586 34.1968 121.203 32.8801L120.908 22.5308L122.705 20.9065L128.196 21.3435L130.183 24.3088ZM176.655 41.2985C175.335 41.1216 174.166 41.3644 173.147 42.0268C172.788 42.2076 172.428 42.3885 172.068 42.5694C171.709 42.6902 171.349 42.8111 170.989 42.9319C170.809 42.9923 170.63 43.0528 170.45 43.1132C170.27 43.1736 170.12 43.234 170 43.2943L157.499 47.104C154.017 46.3322 152.789 46.9052 153.813 48.8227C153.994 49.2423 154.236 49.8717 154.538 50.711C154.84 51.5503 155.081 52.1497 155.262 52.5093C156.043 52.8074 156.854 53.2855 157.695 53.9435C158.537 54.5415 159.318 54.8997 160.038 55.018L161.658 54.8341C162.078 54.8331 162.647 54.8018 163.367 54.7401C164.147 54.6782 164.897 54.5864 165.617 54.4647C166.396 54.2829 167.086 54.0712 167.685 53.8298C168.345 53.5882 168.794 53.2872 169.033 52.9266C169.212 52.6262 169.482 52.4155 169.842 52.2947C170.201 52.1138 170.561 51.963 170.92 51.8421C171.16 51.7815 171.37 51.751 171.55 51.7506C171.79 51.69 172.06 51.6294 172.36 51.5687L173.358 55.0763L172.283 57.1489C172.223 57.269 172.014 57.4195 171.654 57.6004C171.354 57.7211 170.995 57.902 170.575 58.1429C170.156 58.3839 169.737 58.6249 169.317 58.8659C168.958 59.0468 168.688 59.2274 168.508 59.4079C168.389 59.5281 168.059 59.5889 167.519 59.5902C167.039 59.5914 166.469 59.5927 165.809 59.5943C165.209 59.5957 164.579 59.6272 163.919 59.6888C163.259 59.7503 162.749 59.8715 162.39 60.0524C161.551 60.4744 160.892 60.746 160.412 60.8671C159.992 60.9881 159.632 61.0789 159.332 61.1397C159.033 61.2604 158.823 61.2309 158.702 61.0512C158.582 60.9914 158.372 60.9619 158.072 60.9627C157.892 60.9631 157.652 60.9636 157.352 60.9644C157.052 60.9651 156.752 60.9358 156.452 60.8765C155.672 60.8183 155.042 60.7898 154.562 60.791C154.081 60.7321 153.781 60.7028 153.661 60.7031L145.011 56.4937C144.827 54.6941 143.985 53.7961 142.485 53.7996C142.185 53.8004 141.824 53.5612 141.403 53.0822C140.982 52.5432 140.621 51.9741 140.319 51.3748C140.079 51.0754 139.868 50.7459 139.687 50.3863C139.506 49.9667 139.325 49.5171 139.144 49.0376L138.309 38.7795L139.105 32.7476C139.164 32.5075 139.344 32.207 139.643 31.8463C140.001 31.2455 140.449 30.3444 140.986 29.1431C141.225 28.6026 141.704 28.0914 142.423 27.6097C143.142 27.128 143.891 26.7062 144.67 26.3444C145.509 25.9224 146.288 25.5605 147.007 25.2588C147.786 24.897 148.356 24.5956 148.715 24.3548C149.435 24.4731 150.484 23.6906 151.86 22.0073C152.219 21.5864 152.668 21.2554 153.207 21.0141C153.746 20.7128 154.286 20.4715 154.825 20.2902C155.125 20.1695 155.455 20.0787 155.815 20.0179C156.175 19.957 156.505 19.8963 156.804 19.8355L167.338 21.1605C167.938 21.2791 168.568 21.4576 169.229 21.696C169.709 21.9349 170.19 22.2338 170.671 22.5926C171.152 22.9515 171.543 23.3705 171.844 23.8498C172.266 24.8688 172.868 25.7074 173.65 26.3656C174.431 26.9637 175.062 27.3822 175.543 27.6211L178.887 33.5531L178.181 39.4048L176.655 41.2985ZM163.328 38.2701L164.047 37.7284C164.227 37.608 164.406 37.4875 164.586 37.3671C164.766 37.1867 164.915 37.0663 165.035 37.006C165.455 36.885 165.934 36.6439 166.473 36.2826C167.013 35.9213 167.222 35.4708 167.1 34.9311C167.098 33.9111 166.555 32.7724 165.472 31.515C164.389 30.2576 162.977 29.3609 161.236 28.825C160.395 28.527 159.585 28.379 158.805 28.3808C158.025 28.3827 157.275 28.4444 156.555 28.5662C155.895 28.6277 155.265 28.7192 154.666 28.8406C154.126 28.9619 153.676 29.023 153.316 29.0239C151.935 28.7271 151.157 29.359 150.981 30.9194C150.084 32.3015 149.638 33.8326 149.642 35.5126C149.705 37.1324 149.889 38.692 150.193 40.1913C150.195 41.0313 150.346 41.7209 150.648 42.2602C151.009 42.7994 151.43 43.1284 151.91 43.2472C152.39 43.3661 152.87 43.275 153.349 42.9738C153.888 42.6125 154.337 41.9815 154.695 41.0806L163.328 38.2701ZM252.51 30.7683C252.693 31.7879 252.785 32.6876 252.787 33.4676C252.789 34.1876 252.76 34.9077 252.702 35.6279C252.704 36.2878 252.735 36.9478 252.797 37.6076C252.918 38.2073 253.16 38.8668 253.521 39.5859C253.402 39.8262 253.103 40.3069 252.625 41.028C252.206 41.689 251.908 42.3798 251.73 43.1002C251.611 43.7605 251.523 44.2707 251.463 44.6308C251.404 44.991 251.345 45.2311 251.285 45.3512C251.465 45.4708 251.616 45.7105 251.737 46.0702C251.798 46.37 251.738 46.7602 251.56 47.2406C251.381 47.661 251.022 48.2619 250.484 49.0432C249.407 50.4857 248.81 51.7171 248.693 52.7374C248.575 53.6977 248.337 54.4483 247.978 54.9891C247.858 55.1094 247.469 55.2903 246.809 55.5319C246.21 55.7733 245.491 56.075 244.651 56.437C243.812 56.739 242.973 57.101 242.134 57.523C241.295 57.945 240.636 58.3666 240.157 58.7877C239.137 58.9701 238.238 59.2123 237.459 59.5141C236.679 59.816 235.72 60.0283 234.58 60.151C233.501 60.3935 232.391 60.6962 231.252 61.0589C230.113 61.3616 229.483 61.5131 229.363 61.5134C226.543 61.52 224.864 61.614 224.324 61.7953C223.844 61.9765 223.275 62.0678 222.615 62.0694L214.418 59.1188L210.625 53.6378C210.621 52.1978 210.558 50.998 210.436 50.0383C210.374 49.0184 210.282 48.1486 210.16 47.4289C210.038 46.6492 209.946 45.9294 209.885 45.2696C209.823 44.6097 209.821 43.8597 209.879 43.0196C210.059 42.8391 210.328 42.4185 210.686 41.7576C211.045 41.0368 211.403 40.2259 211.761 39.3251C212.179 38.4241 212.566 37.4932 212.924 36.5323C213.342 35.5713 213.64 34.7606 213.818 34.1002C214.295 32.719 214.652 31.5182 214.89 30.4976C215.127 29.4171 215.305 28.4566 215.423 27.6164C215.902 27.3152 216.291 26.9843 216.591 26.6236C216.89 26.2629 217.189 25.9622 217.488 25.7214C219.945 24.2756 222.072 23.1006 223.87 22.1963C225.668 21.232 227.346 20.628 228.906 20.3843L231.605 20.1979C231.905 20.2572 232.176 20.3166 232.416 20.376C232.656 20.4354 232.896 20.4948 233.136 20.5543C233.496 20.6734 233.827 20.7626 234.127 20.8219C234.427 20.8212 234.607 20.8208 234.667 20.8206L236.473 23.6064C236.475 24.1464 236.356 24.5966 236.117 24.9572C235.877 25.2578 236.118 25.4672 236.838 25.5855C237.619 25.7636 238.039 25.8826 238.099 25.9425L238.099 26.0325C239.059 26.0302 240.049 25.8179 241.068 25.3954C242.087 24.913 243.106 24.6706 244.126 24.6682C244.366 24.6676 244.786 24.7866 245.387 25.0252C245.987 25.2038 246.618 25.4423 247.279 25.7407C247.939 26.0391 248.54 26.3377 249.081 26.6364C249.681 26.875 250.102 27.054 250.342 27.1734C250.224 28.0737 250.256 28.7036 250.436 29.0632C250.617 29.4228 250.858 29.6922 251.158 29.8715C251.459 29.9908 251.729 30.1101 251.969 30.2296C252.269 30.2889 252.45 30.4684 252.51 30.7683ZM236.454 53.3065C237.353 52.7044 238.218 50.7823 239.05 47.5403C239.526 45.7992 239.913 44.5082 240.211 43.6675C240.569 42.7667 240.747 41.9263 240.745 41.1463C240.742 39.8263 240.288 38.2673 239.384 36.4695C238.902 35.5106 238.54 34.7015 238.298 34.0421C238.057 33.3826 237.875 32.7231 237.754 32.0633C237.273 31.8245 237.002 31.4651 236.941 30.9853C236.94 30.4453 236.698 29.9058 236.217 29.367C235.616 28.8884 235.256 28.7093 235.136 28.8295C235.016 28.9498 234.896 29.0101 234.776 29.0104L233.966 29.0123C233.486 29.0135 232.826 29.105 231.987 29.287C231.207 29.4689 230.578 29.8904 230.1 30.5515C229.382 31.3332 228.753 31.9647 228.214 32.446C227.735 32.8671 227.466 33.1378 227.406 33.2579C226.809 34.3993 226.271 35.3906 225.793 36.2318C225.315 37.0129 224.927 37.6438 224.628 38.1245L223.822 40.0164C223.464 40.9173 223.317 42.1177 223.381 43.6175C223.501 43.8572 223.623 44.3969 223.745 45.2366C223.867 46.0164 223.509 46.8572 222.671 47.7592C222.491 47.9396 222.312 48.3001 222.133 48.8405C221.954 49.3209 221.836 49.8912 221.777 50.5513C221.719 51.2115 221.78 51.8713 221.962 52.5309C222.204 53.1903 222.655 53.7593 223.316 54.2377C224.158 54.8357 225.029 55.4336 225.93 56.0315C226.832 56.5693 227.402 56.838 227.642 56.8374L228.632 56.8351C228.992 56.8342 229.323 56.9234 229.623 57.1027L236.454 53.3065ZM300.206 24.085L300.214 27.415L299.675 27.9563L291.481 26.2657L284.289 29.6128L282.32 34.2075C280.529 37.8118 279.216 41.0849 278.383 44.0269C277.55 46.9089 277.646 49.3687 278.671 51.4062L281.291 55.9L290.738 54.2576L294.694 52.8982L302.074 52.8807L302.982 56.0285L292.909 58.9324L278.696 61.9362L274.369 59.1565L266.989 59.174L264.192 56.1206C263.464 52.7023 263.546 49.2521 264.437 45.77C265.329 42.2279 266.67 38.6247 268.462 34.9604L278.524 27.6465L281.034 23.3205L283.912 22.2337L285.888 20.609L299.572 22.2865L300.206 24.085ZM348.745 40.8898C347.424 40.7129 346.255 40.9557 345.237 41.6181C344.877 41.799 344.517 41.9798 344.158 42.1607C343.798 42.2815 343.438 42.4024 343.079 42.5232C342.899 42.5837 342.719 42.6441 342.539 42.7045C342.359 42.765 342.209 42.8253 342.09 42.8856L329.589 46.6953C326.107 45.9236 324.878 46.4965 325.903 48.4141C326.084 48.8336 326.325 49.4631 326.627 50.3023C326.929 51.1416 327.17 51.7411 327.351 52.1006C328.132 52.3988 328.943 52.8768 329.785 53.5348C330.626 54.1329 331.407 54.491 332.127 54.6093L333.747 54.4254C334.167 54.4244 334.737 54.3931 335.457 54.3314C336.237 54.2695 336.986 54.1777 337.706 54.056C338.486 53.8742 339.175 53.6625 339.775 53.4211C340.434 53.1796 340.883 52.8785 341.122 52.5179C341.302 52.2175 341.571 52.0069 341.931 51.886C342.29 51.7051 342.65 51.5543 343.01 51.4334C343.25 51.3729 343.46 51.3424 343.64 51.3419C343.879 51.2814 344.149 51.2207 344.449 51.16L345.447 54.6677L344.372 56.7402C344.313 56.8604 344.103 57.0109 343.743 57.1917C343.444 57.3124 343.084 57.4933 342.665 57.7343C342.245 57.9753 341.826 58.2163 341.406 58.4573C341.047 58.6381 340.777 58.8188 340.598 58.9992C340.478 59.1195 340.148 59.1803 339.608 59.1815C339.128 59.1827 338.558 59.184 337.898 59.1856C337.298 59.187 336.668 59.2185 336.008 59.2801C335.349 59.3417 334.839 59.4629 334.479 59.6437C333.64 60.0657 332.981 60.3373 332.501 60.4584C332.081 60.5794 331.722 60.6703 331.422 60.731C331.122 60.8517 330.912 60.8222 330.792 60.6425C330.671 60.5828 330.461 60.5533 330.161 60.554C329.981 60.5544 329.741 60.555 329.441 60.5557C329.141 60.5564 328.841 60.5271 328.541 60.4678C327.761 60.4097 327.131 60.3812 326.651 60.3823C326.171 60.3235 325.871 60.2942 325.751 60.2944L317.101 56.085C316.917 54.2854 316.074 53.3874 314.574 53.391C314.274 53.3917 313.914 53.1525 313.493 52.6735C313.071 52.1345 312.71 51.5654 312.409 50.9661C312.168 50.6667 311.957 50.3372 311.776 49.9776C311.595 49.558 311.414 49.1085 311.233 48.6289L310.399 38.3708L311.194 32.3389C311.254 32.0988 311.433 31.7984 311.732 31.4377C312.091 30.8368 312.539 29.9357 313.076 28.7345C313.315 28.1939 313.793 27.6827 314.512 27.201C315.231 26.7193 315.98 26.2976 316.759 25.9357C317.598 25.5137 318.377 25.1519 319.097 24.8501C319.876 24.4883 320.445 24.1869 320.804 23.9461C321.525 24.0644 322.573 23.2819 323.949 21.5986C324.308 21.1778 324.757 20.8467 325.297 20.6054C325.836 20.3041 326.375 20.0628 326.915 19.8816C327.215 19.7609 327.544 19.6701 327.904 19.6092C328.264 19.5484 328.594 19.4876 328.894 19.4269L339.427 20.7519C340.027 20.8704 340.658 21.0489 341.318 21.2874C341.799 21.5262 342.279 21.8251 342.76 22.1839C343.241 22.5428 343.632 22.9619 343.933 23.4412C344.356 24.4602 344.958 25.2987 345.739 25.9569C346.521 26.555 347.152 26.9735 347.632 27.2124L350.976 33.1445L350.27 38.9962L348.745 40.8898ZM335.418 37.8614L336.136 37.3197C336.316 37.1993 336.496 37.0789 336.675 36.9584C336.855 36.778 337.005 36.6577 337.125 36.5974C337.544 36.4764 338.024 36.2352 338.563 35.874C339.102 35.5127 339.311 35.0622 339.19 34.5225C339.187 33.5025 338.645 32.3637 337.562 31.1063C336.479 29.8489 335.066 28.9522 333.325 28.4164C332.484 28.1184 331.674 27.9703 330.894 27.9721C330.114 27.974 329.364 28.0358 328.644 28.1575C327.985 28.219 327.355 28.3105 326.755 28.432C326.215 28.5533 325.766 28.6143 325.406 28.6152C324.025 28.3185 323.246 28.9503 323.07 30.5107C322.173 31.8929 321.727 33.4239 321.731 35.1039C321.795 36.7238 321.979 38.2833 322.282 39.7826C322.284 40.6226 322.436 41.3123 322.737 41.8516C323.098 42.3907 323.519 42.7197 323.999 42.8386C324.48 42.9574 324.959 42.8663 325.439 42.5651C325.978 42.2039 326.426 41.5728 326.784 40.6719L335.418 37.8614ZM401.509 57.2345L388.913 58.7944L386.293 54.5707C386.291 53.7907 385.691 53.8221 384.493 54.6649C384.193 54.8456 383.894 55.1464 383.595 55.5671C383.296 55.9878 382.997 56.4085 382.698 56.8292C382.519 57.0696 382.339 57.3101 382.16 57.5505C381.98 57.7909 381.801 58.0613 381.622 58.3618C379.765 59.7462 377.847 60.6507 375.868 61.0754C373.949 61.5 372.298 61.2339 370.916 60.2772C369.896 60.1596 369.205 59.9213 368.844 59.5621C368.664 59.4425 368.424 59.2331 368.123 58.9338L362.362 58.5875L359.929 57.4233L357.666 51.7586L358.111 49.8676L356.113 41.9523L359.878 35.6433L362.931 32.8461C364.07 32.2434 365.388 31.7602 366.888 31.3967C368.387 31.0331 369.886 30.7895 371.386 30.666C372.885 30.4824 374.325 30.449 375.706 30.5657C377.086 30.6225 378.226 30.7997 379.127 31.0976C379.129 32.0576 379.431 32.6869 380.031 32.9855C380.632 33.284 381.803 33.6113 383.544 33.9671C384.141 32.9457 384.438 31.715 384.435 30.275C384.431 28.775 384.158 27.2156 383.614 25.5969L382.163 21.0104C381.682 20.8315 380.932 20.5333 379.911 20.1157C378.95 19.638 378.139 19.2499 377.478 18.9515L373.61 19.5907L369.651 20.4101L368.748 18.9722L369.732 16.6299L370.359 15.1884L371.618 14.9154L375.757 14.1856L379.45 15.4368L383.498 14.7972L391.334 17.1186L394.676 22.1507L395.88 36.4578L395.62 40.9585L397.625 51.4837L398.797 52.021L401.587 52.0143L402.764 55.1615L401.509 57.2345ZM368.444 42.643C368.148 44.2037 368.151 45.5237 368.454 46.603C368.816 47.6821 369.388 48.5808 370.17 49.2989L371.527 52.0857C372.608 52.4432 373.628 52.7107 374.589 52.8884C375.549 53.0662 376.539 53.0938 377.559 52.9714C378.638 52.7888 379.748 52.4562 380.886 51.9735C382.085 51.4306 383.463 50.6474 385.021 49.6237L385.19 45.0332L383.551 37.0271C382.71 36.7291 381.96 36.5809 381.3 36.5825C380.7 36.5839 380.1 36.6453 379.5 36.7667C378.781 36.9484 377.941 37.1004 376.981 37.2227C376.022 37.345 375.032 37.4973 374.012 37.6798C373.053 37.8021 372.153 37.9842 371.314 38.2262C370.534 38.408 369.965 38.6794 369.606 39.0402L368.444 42.643ZM419.932 62.2308C419.752 62.2312 419.362 62.2621 418.762 62.3236C418.222 62.3249 417.623 62.3563 416.963 62.4178C416.303 62.4194 415.673 62.4509 415.073 62.5123C414.473 62.5138 414.053 62.5148 413.813 62.5153L411.833 62.7L410.301 61.6237C410.239 60.7238 410.296 59.6737 410.473 58.4732C410.71 57.2727 410.828 56.3424 410.827 55.6824C411.547 55.6807 411.695 54.9603 411.272 53.5213C410.788 52.0825 410.605 50.9429 410.723 50.1026C410.781 49.1425 410.929 48.1821 411.167 47.2216C411.404 46.201 411.433 45.5409 411.252 45.2414C411.131 44.8816 410.98 44.492 410.799 44.0724C410.618 43.5929 410.467 43.0532 410.345 42.4535L411.411 36.601C411.404 33.361 411.428 30.8709 411.484 29.1308C411.599 27.3905 411.686 26.1003 411.744 25.2601C411.862 24.4198 411.981 23.9096 412.101 23.7293C412.28 23.4889 412.4 23.2786 412.459 23.0984C412.579 22.9181 412.638 22.618 412.637 22.198C412.696 21.7779 412.694 20.9379 412.631 19.678L414.519 18.6835C415.539 18.7411 416.769 18.9182 418.21 19.2148C419.711 19.4512 421.151 19.7178 422.532 20.0145C423.252 20.1328 423.883 20.2513 424.423 20.37C424.963 20.4287 425.443 20.5176 425.863 20.6366L427.128 22.3436C425.989 23.1263 425.241 23.6381 424.881 23.8789C424.522 24.1198 424.493 24.6299 424.795 25.4091C425.877 26.3666 426.808 26.6644 427.587 26.3025C428.426 25.9405 428.995 25.3692 429.293 24.5885L435.139 23.1346L438.559 23.1264L440.091 23.6628C441.532 24.1394 442.973 24.646 444.414 25.1825C445.916 25.719 447.147 26.1361 448.107 26.4338L449.737 30.3899L449.649 31.4701C449.773 33.2098 449.867 34.8896 449.931 36.5095C450.055 38.0692 450.06 39.9892 449.945 42.2695C449.888 43.7096 449.832 45.1797 449.775 46.6799C449.719 48.12 449.662 49.5002 449.605 50.8203C449.608 52.1403 449.611 53.3103 449.614 54.3303C449.616 55.2903 449.618 56.0103 449.619 56.4903C449.619 56.5503 449.679 56.7901 449.8 57.2098C449.981 57.6294 450.222 58.0788 450.524 58.5581L449.896 59.5496L448.188 60.3637C447.348 60.4257 446.268 60.5782 444.949 60.8214C443.69 61.0644 442.64 61.1869 441.8 61.1889C441.44 61.1897 441.14 61.0704 440.899 60.831C440.658 60.5316 440.118 60.4129 439.278 60.4748L438.016 59.3978C438.134 58.6176 438.162 57.9875 438.101 57.5076C438.04 56.9678 437.949 56.518 437.828 56.1583C437.707 55.7386 437.586 55.3788 437.465 55.0791C437.345 54.7794 437.284 54.4796 437.283 54.1796C437.341 53.2794 437.429 52.2892 437.546 51.2089C437.664 50.3686 437.782 49.4084 437.899 48.3281C438.077 47.1877 438.284 46.0772 438.521 44.9966C438.64 44.3363 438.698 43.4962 438.695 42.4762C438.693 41.3962 438.69 40.3462 438.688 39.3262C438.685 38.2462 438.683 37.2262 438.681 36.2662C438.678 35.3062 438.707 34.5861 438.765 34.106L436.145 29.5222C435.904 29.4628 435.664 29.4033 435.424 29.3439C435.184 29.2845 434.914 29.1951 434.614 29.0758C434.133 28.957 433.653 28.9881 433.174 29.1693C432.754 29.3502 432.335 29.5612 431.915 29.8022C431.496 30.0432 431.106 30.2842 430.747 30.525C430.388 30.7659 430.058 30.8867 429.758 30.8874C429.758 31.0674 429.428 30.9182 428.767 30.4397C428.165 29.9011 427.654 29.3924 427.233 28.9134C426.211 28.0758 425.461 27.9276 424.982 28.4687C424.563 28.9497 424.205 29.6106 423.907 30.4513C423.968 31.1111 424.059 31.5609 424.18 31.8006C424.361 32.0402 424.541 32.2198 424.721 32.3393C424.961 32.3988 425.171 32.3983 425.351 32.3378C425.052 32.5785 424.813 33.0291 424.634 33.6895C424.456 34.29 424.308 34.9803 424.189 35.7606C424.131 36.4807 424.103 37.2608 424.105 38.1008C424.167 38.8807 424.259 39.6005 424.38 40.2602C424.502 40.9799 424.415 42.2401 424.119 44.0408C423.883 45.8414 423.828 47.9115 423.954 50.2512C423.956 51.1512 423.928 52.1113 423.871 53.1314C423.813 54.0916 423.755 55.0517 423.697 56.0118C423.64 56.912 423.582 57.7521 423.523 58.5323C423.465 59.2524 423.437 59.8225 423.438 60.2425L423.438 60.5125C422.3 61.4752 421.132 62.0479 419.932 62.2308Z" fill="white"/>
</svg>
